# Blender 3.5.1
# www.blender.org
mtllib april_tag.mtl
o Cube
v -0.085000 -0.110000 0.005000
v -0.085000 0.110000 0.005000
v -0.085000 -0.110000 -0.005000
v -0.085000 0.110000 -0.005000
v 0.085000 -0.110000 0.005000
v 0.085000 0.110000 0.005000
v 0.085000 -0.110000 -0.005000
v 0.085000 0.110000 -0.005000
vn -1.0000 -0.0000 -0.0000
vn -0.0000 -0.0000 -1.0000
vn 1.0000 -0.0000 -0.0000
vn -0.0000 -0.0000 1.0000
vn -0.0000 -1.0000 -0.0000
vn -0.0000 1.0000 -0.0000
vt 0.945946 0.000000
vt 0.459459 0.000000
vt 0.972973 0.000000
vt 0.945946 0.594594
vt 0.459460 0.594595
vt 0.972973 0.918919
vt 0.918919 0.000000
vt 0.459459 0.000000
vt 1.000000 0.000000
vt 0.918919 0.594594
vt 0.459459 0.594594
vt 1.000000 0.918919
vt 0.945946 0.000000
vt 0.918919 0.000000
vt 0.972973 0.459459
vt 0.945946 0.594594
vt 0.918919 0.594594
vt 0.972973 0.459459
vt 0.000000 0.000000
vt 0.972973 0.000000
vt 1.000000 0.459459
vt 0.000000 0.594595
vt 0.972973 0.594594
vt 1.000000 0.459459
s 0
usemtl Material.001
f 1/1/1 2/4/1 4/10/1 3/7/1
f 3/8/2 4/11/2 8/22/2 7/19/2
f 7/20/3 8/23/3 6/16/3 5/13/3
f 5/14/4 6/17/4 2/5/4 1/2/4
f 3/9/5 7/21/5 5/15/5 1/3/5
f 8/24/6 4/12/6 2/6/6 6/18/6
